<svg width="54" height="55" viewBox="0 0 54 55" fill="none" xmlns="http://www.w3.org/2000/svg">
<path d="M50.2086 24.2657C50.0163 18.3961 47.5912 12.8213 43.4282 8.67907C39.0382 4.28819 33.2037 1.87085 27.0004 1.87085C14.4716 1.87085 4.23437 11.8431 3.79309 24.2657C2.82703 24.6936 2.00581 25.3925 1.42894 26.2777C0.852075 27.1629 0.544319 28.1965 0.542969 29.2531V35.3804C0.544532 36.8273 1.12001 38.2145 2.14312 39.2376C3.16624 40.2607 4.55344 40.8362 6.00034 40.8378C6.93651 40.8366 7.834 40.4643 8.49597 39.8023C9.15794 39.1403 9.53032 38.2428 9.53144 37.3067V27.3259C9.53144 25.4975 8.12912 24.0066 6.34628 23.8294C7.00441 13.0067 16.014 4.4021 27.0004 4.4021C32.5287 4.4021 37.727 6.55704 41.6395 10.4695C45.2322 14.0622 47.3348 18.745 47.6512 23.8303C45.8701 24.0092 44.4703 25.4992 44.4703 27.3259V37.3058C44.4703 39.1494 45.8945 40.6496 47.6985 40.8057V43.3277C47.6969 44.6933 47.1537 46.0025 46.188 46.968C45.2223 47.9336 43.913 48.4766 42.5474 48.4779H38.7328C38.4756 47.7281 37.9901 47.0777 37.3444 46.618C36.6986 46.1582 35.9252 45.9123 35.1325 45.9146H31.2006C30.6362 45.9146 30.0945 46.0344 29.5983 46.2656C28.934 46.5725 28.3713 47.063 27.9767 47.6793C27.582 48.2955 27.3718 49.0117 27.3708 49.7435C27.3708 50.7678 27.7699 51.7297 28.493 52.4494C28.8474 52.8067 29.2693 53.09 29.7341 53.283C30.1989 53.4759 30.6974 53.5746 31.2006 53.5733H35.1325C36.7626 53.5733 38.1995 52.5195 38.7353 51.0092H42.5474C46.7838 51.0092 50.2297 47.5633 50.2297 43.3277V40.3551C51.19 39.9248 52.0056 39.2262 52.5783 38.3434C53.151 37.4605 53.4564 36.431 53.4579 35.3787V29.2514C53.4579 27.0289 52.1197 25.1153 50.2086 24.2657ZM6.99934 27.3259V37.3058C6.99934 37.8568 6.55131 38.3057 5.9995 38.3057C5.22372 38.3048 4.47997 37.9962 3.9314 37.4476C3.38284 36.8991 3.07427 36.1553 3.07337 35.3795V29.2522C3.07427 28.4764 3.38284 27.7327 3.9314 27.1841C4.47997 26.6356 5.22372 26.327 5.9995 26.3261C6.55131 26.3261 6.99934 26.775 6.99934 27.3259ZM36.4023 50.0152C36.3395 50.3058 36.1792 50.5662 35.9481 50.7532C35.717 50.9403 35.429 51.0428 35.1317 51.0438H31.1998C30.8538 51.0438 30.529 50.9088 30.2809 50.6607C30.1602 50.5408 30.0645 50.3982 29.9993 50.241C29.9341 50.0839 29.9008 49.9154 29.9012 49.7452C29.9021 49.4012 30.0393 49.0715 30.2826 48.8283C30.526 48.5851 30.8557 48.4482 31.1998 48.4475H35.1317C35.4776 48.4475 35.8024 48.5817 36.0497 48.8298C36.2943 49.0736 36.4293 49.3993 36.4293 49.7452C36.4302 49.838 36.4201 49.9309 36.4023 50.0152ZM50.9267 35.3795C50.9258 36.1553 50.6172 36.8991 50.0686 37.4476C49.5201 37.9962 48.7763 38.3048 48.0005 38.3057C47.7354 38.3054 47.4812 38.2 47.2938 38.0126C47.1063 37.8251 47.0009 37.5709 47.0007 37.3058V27.3259C47.0007 26.775 47.4487 26.3261 48.0005 26.3261C48.7763 26.327 49.5201 26.6356 50.0686 27.1841C50.6172 27.7327 50.9258 28.4764 50.9267 29.2522V35.3795Z" fill="#6DA015"/>
<path d="M35.195 35.816C36.6168 35.8144 37.98 35.2489 38.9854 34.2435C39.9908 33.2381 40.5563 31.875 40.5578 30.4531V19.5257C40.5578 18.0964 39.9993 16.7498 38.9851 15.7356C37.9709 14.7214 36.6251 14.1628 35.195 14.1628H18.8043C17.3824 14.1644 16.0193 14.7299 15.0139 15.7353C14.0085 16.7407 13.443 18.1039 13.4414 19.5257V30.4531C13.443 31.875 14.0085 33.2381 15.0139 34.2435C16.0193 35.2489 17.3824 35.8144 18.8043 35.816H18.9047V38.6476C18.903 38.9934 18.9697 39.3361 19.101 39.656C19.2322 39.9758 19.4254 40.2666 19.6694 40.5116C19.9134 40.7566 20.2035 40.9509 20.5229 41.0833C20.8422 41.2158 21.1847 41.2838 21.5304 41.2835C21.876 41.2842 22.2181 41.2153 22.5364 41.0809C22.8548 40.9465 23.1428 40.7494 23.3833 40.5013L28.094 35.816H35.195ZM26.6807 33.6526L21.5828 38.7227C21.56 38.7463 21.5431 38.7641 21.495 38.743C21.4368 38.7193 21.4368 38.6814 21.4368 38.6476V34.5504C21.4368 34.2147 21.3034 33.8928 21.0661 33.6554C20.8287 33.4181 20.5068 33.2847 20.1712 33.2847H18.8051C18.0544 33.2839 17.3347 32.9852 16.8039 32.4544C16.273 31.9236 15.9744 31.2038 15.9735 30.4531V19.5257C15.9744 18.775 16.273 18.0553 16.8039 17.5244C17.3347 16.9936 18.0544 16.695 18.8051 16.6941H35.1958C35.9501 16.6941 36.6597 16.9894 37.1963 17.5252C37.733 18.0618 38.0274 18.7722 38.0274 19.5257V30.4531C38.0265 31.2038 37.7279 31.9236 37.1971 32.4544C36.6662 32.9852 35.9465 33.2839 35.1958 33.2847H27.5734C27.2384 33.2847 26.9178 33.4172 26.6807 33.6526Z" fill="#6DA015"/>
<path d="M20.8516 23.324C19.8222 23.324 18.9844 24.1627 18.9844 25.1912C18.9844 26.2197 19.8231 27.0584 20.8516 27.0584C21.8818 27.0584 22.7205 26.2197 22.7205 25.1912C22.7205 24.1627 21.8827 23.324 20.8516 23.324ZM26.9992 23.324C25.9698 23.324 25.1319 24.1627 25.1319 25.1912C25.1319 26.2197 25.9706 27.0584 26.9992 27.0584C28.0302 27.0584 28.8681 26.2197 28.8681 25.1912C28.8681 24.1627 28.0302 23.324 26.9992 23.324ZM33.1467 23.324C32.1173 23.324 31.2795 24.1627 31.2795 25.1912C31.2795 26.2197 32.1182 27.0584 33.1467 27.0584C34.1769 27.0584 35.0156 26.2197 35.0156 25.1912C35.0156 24.1627 34.1769 23.324 33.1467 23.324Z" fill="#6DA015"/>
</svg>
